<?xml version="1.0" encoding="UTF-8" standalone="no"?>
<svg
   id="wave"
   viewBox="0 0 2160 138.8354"
   version="1.1"
   sodipodi:docname="wave (3).svg"
   width="2160"
   height="138.8354"
   inkscape:export-filename="wave (3).svg"
   inkscape:export-xdpi="96"
   inkscape:export-ydpi="96"
   xmlns:inkscape="http://www.inkscape.org/namespaces/inkscape"
   xmlns:sodipodi="http://sodipodi.sourceforge.net/DTD/sodipodi-0.dtd"
   xmlns="http://www.w3.org/2000/svg"
   xmlns:svg="http://www.w3.org/2000/svg">
  <sodipodi:namedview
     id="namedview3349"
     pagecolor="#ffffff"
     bordercolor="#000000"
     borderopacity="0"
     inkscape:showpageshadow="2"
     inkscape:pageopacity="0"
     inkscape:pagecheckerboard="0"
     inkscape:deskcolor="#d1d1d1"
     showgrid="false" />
  <defs
     id="defs3344">
    <linearGradient
       id="sw-gradient-0"
       x1="0"
       x2="0"
       y1="552.21069"
       y2="4.5935988"
       gradientTransform="matrix(3.944362,0,0,-0.25352643,0,140)"
       gradientUnits="userSpaceOnUse">
      <stop
         stop-color="rgba(2, 48, 71, 1)"
         offset="0"
         id="stop3339"
         style="stop-color:#023047;stop-opacity:1;" />
      <stop
         stop-color="rgba(3, 82, 121, 1)"
         offset="1"
         id="stop3341"
         style="stop-color:#035279;stop-opacity:1;" />
    </linearGradient>
  </defs>
  <path
     style="opacity:1;fill:url(#sw-gradient-0)"
     fill="url(#sw-gradient-0)"
     d="m 0,126 15,-4.7 C 30,117 60,107 90,95.7 120,84 150,70 180,70 c 30,0 60,14 90,23.3 30,9.7 60,13.7 90,9.4 30,-4.7 60,-18.7 90,-23.4 30,-4.3 60,-0.3 90,0 30,-0.3 60,-4.3 90,0 30,4.7 60,18.7 90,25.7 30,7 60,7 90,4.7 30,-2.7 60,-6.7 90,-11.7 30,-5 60,-9 90,-16.3 30,-6.7 60,-16.7 90,-7 30,9.3 60,37.3 90,51.3 30,14 60,14 90,0 30,-14 60,-42 90,-42 30,0 60,28 90,42 30,14 60,14 90,11.7 30,-2.7 60,-6.7 90,-18.7 30,-12 60,-30 90,-49 30,-19 60,-37 90,-25.7 30,11.7 60,53.7 90,67.7 30,14 60,0 90,-9.3 30,-9.7 60,-13.7 90,-25.7 30,-12 60,-30 75,-39.7 L 2160,28 V 0 h -15 c -15,0 -45,0 -75,0 -30,0 -60,0 -90,0 -30,0 -60,0 -90,0 -30,0 -60,0 -90,0 -30,0 -60,0 -90,0 -30,0 -60,0 -90,0 -30,0 -60,0 -90,0 -30,0 -60,0 -90,0 -30,0 -60,0 -90,0 -30,0 -60,0 -90,0 -30,0 -60,0 -90,0 -30,0 -60,0 -90,0 -30,0 -60,0 -90,0 C 960,0 930,0 900,0 870,0 840,0 810,0 780,0 750,0 720,0 690,0 660,0 630,0 600,0 570,0 540,0 510,0 480,0 450,0 420,0 390,0 360,0 330,0 300,0 270,0 240,0 210,0 180,0 150,0 120,0 90,0 60,0 30,0 15,0 H 0 Z"
     id="path3346"
     inkscape:export-filename=".\path3346.svg"
     inkscape:export-xdpi="96"
     inkscape:export-ydpi="96" />
</svg>
