<svg id="wave" version="1.1" width="2160" height="138.835" opacity="1" xmlns="http://www.w3.org/2000/svg"><defs id="defs3344"><linearGradient id="sw-gradient-0" x1="0" x2="0" y1="552.211" y2="4.594" gradientTransform="matrix(3.94436 0 0 -.25353 0 140)" gradientUnits="userSpaceOnUse"><stop stop-color="rgba(2, 48, 71, 1)" offset="0" id="stop3339" style="stop-color:#023047;stop-opacity:1"/><stop stop-color="rgba(3, 82, 121, 1)" offset="1" id="stop3341" style="stop-color:#035279;stop-opacity:1"/></linearGradient></defs><path style="opacity:1;fill:url(#sw-gradient-0)" fill="url('#sw-gradient-0')" d="m0 126 15-4.7C30 117 60 107 90 95.7 120 84 150 70 180 70s60 14 90 23.3c30 9.7 60 13.7 90 9.4 30-4.7 60-18.7 90-23.4 30-4.3 60-.3 90 0 30-.3 60-4.3 90 0C660 84 690 98 720 105s60 7 90 4.7c30-2.7 60-6.7 90-11.7 30-5 60-9 90-16.3 30-6.7 60-16.7 90-7 30 9.3 60 37.3 90 51.3s60 14 90 0 60-42 90-42 60 28 90 42 60 14 90 11.7c30-2.7 60-6.7 90-18.7s60-30 90-49 60-37 90-25.7c30 11.7 60 53.7 90 67.7s60 0 90-9.3c30-9.7 60-13.7 90-25.7s60-30 75-39.7l15-9.3V0H0Z" id="path3346"/></svg>