<?xml version="1.0" standalone="no"?>
<svg xmlns:xlink="http://www.w3.org/1999/xlink" id="wave" style="transform:rotate(0deg); transition: 0.3s" viewBox="0 0 1440 320" version="1.1" xmlns="http://www.w3.org/2000/svg"><defs><linearGradient id="sw-gradient-0" x1="0" x2="0" y1="1" y2="0"><stop stop-color="rgba(3, 82, 121, 0.67)" offset="0%"/><stop stop-color="rgba(41, 171, 226, 0.55)" offset="100%"/></linearGradient></defs><path style="transform:translate(0, 0px); opacity:1" fill="url(#sw-gradient-0)" d="M0,288L24,240C48,192,96,96,144,48C192,0,240,0,288,26.7C336,53,384,107,432,106.7C480,107,528,53,576,69.3C624,85,672,171,720,208C768,245,816,235,864,234.7C912,235,960,245,1008,218.7C1056,192,1104,128,1152,106.7C1200,85,1248,107,1296,112C1344,117,1392,107,1440,133.3C1488,160,1536,224,1584,224C1632,224,1680,160,1728,122.7C1776,85,1824,75,1872,90.7C1920,107,1968,149,2016,154.7C2064,160,2112,128,2160,96C2208,64,2256,32,2304,37.3C2352,43,2400,85,2448,101.3C2496,117,2544,107,2592,112C2640,117,2688,139,2736,133.3C2784,128,2832,96,2880,80C2928,64,2976,64,3024,90.7C3072,117,3120,171,3168,160C3216,149,3264,75,3312,80C3360,85,3408,171,3432,213.3L3456,256L3456,320L3432,320C3408,320,3360,320,3312,320C3264,320,3216,320,3168,320C3120,320,3072,320,3024,320C2976,320,2928,320,2880,320C2832,320,2784,320,2736,320C2688,320,2640,320,2592,320C2544,320,2496,320,2448,320C2400,320,2352,320,2304,320C2256,320,2208,320,2160,320C2112,320,2064,320,2016,320C1968,320,1920,320,1872,320C1824,320,1776,320,1728,320C1680,320,1632,320,1584,320C1536,320,1488,320,1440,320C1392,320,1344,320,1296,320C1248,320,1200,320,1152,320C1104,320,1056,320,1008,320C960,320,912,320,864,320C816,320,768,320,720,320C672,320,624,320,576,320C528,320,480,320,432,320C384,320,336,320,288,320C240,320,192,320,144,320C96,320,48,320,24,320L0,320Z"/><defs><linearGradient id="sw-gradient-1" x1="0" x2="0" y1="1" y2="0"><stop stop-color="rgba(3, 82, 121, 1)" offset="0%"/><stop stop-color="rgba(41, 171, 226, 1)" offset="100%"/></linearGradient></defs><path style="transform:translate(0, 50px); opacity:0.9" fill="url(#sw-gradient-1)" d="M0,96L24,122.7C48,149,96,203,144,213.3C192,224,240,192,288,149.3C336,107,384,53,432,64C480,75,528,149,576,154.7C624,160,672,96,720,74.7C768,53,816,75,864,106.7C912,139,960,181,1008,165.3C1056,149,1104,75,1152,48C1200,21,1248,43,1296,53.3C1344,64,1392,64,1440,101.3C1488,139,1536,213,1584,213.3C1632,213,1680,139,1728,112C1776,85,1824,107,1872,128C1920,149,1968,171,2016,186.7C2064,203,2112,213,2160,197.3C2208,181,2256,139,2304,122.7C2352,107,2400,117,2448,101.3C2496,85,2544,43,2592,53.3C2640,64,2688,128,2736,128C2784,128,2832,64,2880,42.7C2928,21,2976,43,3024,80C3072,117,3120,171,3168,192C3216,213,3264,203,3312,170.7C3360,139,3408,85,3432,58.7L3456,32L3456,320L3432,320C3408,320,3360,320,3312,320C3264,320,3216,320,3168,320C3120,320,3072,320,3024,320C2976,320,2928,320,2880,320C2832,320,2784,320,2736,320C2688,320,2640,320,2592,320C2544,320,2496,320,2448,320C2400,320,2352,320,2304,320C2256,320,2208,320,2160,320C2112,320,2064,320,2016,320C1968,320,1920,320,1872,320C1824,320,1776,320,1728,320C1680,320,1632,320,1584,320C1536,320,1488,320,1440,320C1392,320,1344,320,1296,320C1248,320,1200,320,1152,320C1104,320,1056,320,1008,320C960,320,912,320,864,320C816,320,768,320,720,320C672,320,624,320,576,320C528,320,480,320,432,320C384,320,336,320,288,320C240,320,192,320,144,320C96,320,48,320,24,320L0,320Z"/></svg>