<svg version="1.1" viewBox="0 0 644.831 644.832" id="svg160" xml:space="preserve" width="643.831" height="643.832" xmlns:xlink="http://www.w3.org/1999/xlink" xmlns="http://www.w3.org/2000/svg"><defs id="defs88"><linearGradient x1=".5" y1="0" x2=".5" y2="1" id="cccoil-grad"><stop stop-color="#E79B25" stop-opacity="1" offset="75%" id="stop83"/><stop stop-color="#035279" stop-opacity="1" offset="100%" id="stop85"/></linearGradient><linearGradient xlink:href="#cccoil-grad" id="linearGradient3484" x1="400" y1="110.249" x2="400" y2="689.75" gradientUnits="userSpaceOnUse"/><linearGradient xlink:href="#cccoil-grad" id="linearGradient3486" x1="400" y1="122.249" x2="400" y2="677.75" gradientUnits="userSpaceOnUse"/><linearGradient xlink:href="#cccoil-grad" id="linearGradient3488" x1="400" y1="134.249" x2="400" y2="665.75" gradientUnits="userSpaceOnUse"/><linearGradient xlink:href="#cccoil-grad" id="linearGradient3490" x1="400" y1="146.249" x2="400" y2="653.75" gradientUnits="userSpaceOnUse"/><linearGradient xlink:href="#cccoil-grad" id="linearGradient3492" x1="400" y1="158.249" x2="400" y2="641.75" gradientUnits="userSpaceOnUse"/><linearGradient xlink:href="#cccoil-grad" id="linearGradient3494" x1="400" y1="170.249" x2="400" y2="629.75" gradientUnits="userSpaceOnUse"/><linearGradient xlink:href="#cccoil-grad" id="linearGradient3496" x1="399.814" y1="182.738" x2="399.814" y2="618.037" gradientTransform="scale(1.00046 .99954)" gradientUnits="userSpaceOnUse"/><linearGradient xlink:href="#cccoil-grad" id="linearGradient3498" x1="399.148" y1="196.418" x2="399.148" y2="607.043" gradientTransform="scale(1.00213 .99787)" gradientUnits="userSpaceOnUse"/><linearGradient xlink:href="#cccoil-grad" id="linearGradient3500" x1="399.095" y1="208.471" x2="399.095" y2="595.096" gradientTransform="scale(1.00227 .99774)" gradientUnits="userSpaceOnUse"/><linearGradient xlink:href="#cccoil-grad" id="linearGradient3502" x1="399.036" y1="220.532" x2="399.036" y2="583.156" gradientTransform="scale(1.00242 .99759)" gradientUnits="userSpaceOnUse"/><linearGradient xlink:href="#cccoil-grad" id="linearGradient3504" x1="398.967" y1="232.6" x2="398.967" y2="571.225" gradientTransform="scale(1.00259 .99742)" gradientUnits="userSpaceOnUse"/><linearGradient xlink:href="#cccoil-grad" id="linearGradient3506" x1="398.889" y1="244.68" x2="398.889" y2="559.304" gradientTransform="scale(1.00279 .99722)" gradientUnits="userSpaceOnUse"/><linearGradient xlink:href="#cccoil-grad" id="linearGradient3508" x1="400.075" y1="256.297" x2="400.075" y2="546.383" gradientTransform="scale(1.00116 .99884)" gradientUnits="userSpaceOnUse"/><linearGradient xlink:href="#cccoil-grad" id="linearGradient3510" x1="400.875" y1="268" x2="400.875" y2="533.75" gradientUnits="userSpaceOnUse"/><linearGradient xlink:href="#cccoil-grad" id="linearGradient3512" x1="400.875" y1="280" x2="400.875" y2="521.75" gradientUnits="userSpaceOnUse"/><linearGradient xlink:href="#cccoil-grad" id="linearGradient3514" x1="400.875" y1="292" x2="400.875" y2="509.75" gradientUnits="userSpaceOnUse"/><linearGradient xlink:href="#cccoil-grad" id="linearGradient3516" x1="400.875" y1="304" x2="400.875" y2="497.75" gradientUnits="userSpaceOnUse"/><linearGradient xlink:href="#cccoil-grad" id="linearGradient3518" x1="400.875" y1="316" x2="400.875" y2="485.75" gradientUnits="userSpaceOnUse"/><linearGradient xlink:href="#cccoil-grad" id="linearGradient3520" x1="399.164" y1="329.406" x2="399.164" y2="474.534" gradientTransform="scale(1.00429 .99573)" gradientUnits="userSpaceOnUse"/><linearGradient xlink:href="#cccoil-grad" id="linearGradient3522" x1="397.984" y1="342.47" x2="397.984" y2="463.342" gradientTransform="scale(1.00727 .99279)" gradientUnits="userSpaceOnUse"/><linearGradient xlink:href="#cccoil-grad" id="linearGradient3524" x1="397.27" y1="355.194" x2="397.27" y2="452.065" gradientTransform="scale(1.00907 .991)" gradientUnits="userSpaceOnUse"/><linearGradient xlink:href="#cccoil-grad" id="linearGradient3526" x1="396.09" y1="368.397" x2="396.09" y2="441.267" gradientTransform="scale(1.01208 .98806)" gradientUnits="userSpaceOnUse"/><linearGradient xlink:href="#cccoil-grad" id="linearGradient3528" x1="393.761" y1="382.793" x2="393.761" y2="431.66" gradientTransform="scale(1.01807 .98225)" gradientUnits="userSpaceOnUse"/><linearGradient xlink:href="#cccoil-grad" id="linearGradient3530" x1="400" y1="388" x2="400" y2="412" gradientUnits="userSpaceOnUse"/><linearGradient xlink:href="#cccoil-grad" id="linearGradient3532" x1="400" y1="110.249" x2="400" y2="689.75" gradientUnits="userSpaceOnUse"/><linearGradient xlink:href="#cccoil-grad" id="linearGradient4331" x1="366.39" y1="432.94" x2="366.39" y2="795.259" gradientTransform="scale(1.2282 .8142)" gradientUnits="userSpaceOnUse"/><linearGradient xlink:href="#cccoil-grad" id="linearGradient4333" x1="400" y1="249.5" x2="400" y2="550.5" gradientUnits="userSpaceOnUse"/><linearGradient xlink:href="#cccoil-grad" id="linearGradient4335" x1="400" y1="249.5" x2="400" y2="550.5" gradientUnits="userSpaceOnUse"/><linearGradient xlink:href="#cccoil-grad" id="linearGradient4337" x1="400" y1="249.5" x2="400" y2="550.5" gradientUnits="userSpaceOnUse"/><linearGradient xlink:href="#cccoil-grad" id="linearGradient4339" x1="425.573" y1="263.821" x2="425.573" y2="684.665" gradientTransform="scale(1.0574 .94572)" gradientUnits="userSpaceOnUse"/><linearGradient xlink:href="#cccoil-grad" id="linearGradient4888" x1="417.447" y1="102.523" x2="417.447" y2="746.354" gradientUnits="userSpaceOnUse"/><radialGradient id="sssurface-grad-dark" r="225.75" cx="309.7" cy="309.7" fx="309.7" fy="309.7" gradientUnits="userSpaceOnUse"><stop offset="0%" stop-color="#023047" stop-opacity="0" id="stop3926"/><stop offset="100%" stop-color="#000720" stop-opacity="1" id="stop3928"/></radialGradient><radialGradient id="sssurface-grad-light" r="75.25" cx="339.8" cy="339.8" fx="339.8" fy="339.8" gradientUnits="userSpaceOnUse"><stop offset="0%" stop-color="#93b5d2" stop-opacity=".75" id="stop3931"/><stop offset="100%" stop-color="#023047" stop-opacity="0" id="stop3933"/></radialGradient><filter id="sssurface-blur" x="-.242" y="-.483" width="1.483" height="1.967" filterUnits="objectBoundingBox" primitiveUnits="userSpaceOnUse" color-interpolation-filters="sRGB"><feGaussianBlur stdDeviation="30" x="0%" y="0%" width="100%" height="100%" in="SourceGraphic" result="blur" id="feGaussianBlur3936"/></filter></defs><g stroke="url('#cccoil-grad')" fill="none" stroke-linecap="square" id="g158" style="stroke:url(#linearGradient4888)" transform="translate(-191.21 -205.205)"><g stroke="url('#cccoil-grad')" fill="none" stroke-linecap="square" id="g3090" transform="matrix(1.111 0 0 1.111 -26.957 -19.965)" style="stroke:url(#linearGradient3532)" stroke-width="3.5"><circle r="288" cx="400" cy="400" stroke-dasharray="1810, 1810" opacity=".05" id="circle3042" style="stroke:url(#linearGradient3484)"/><circle r="276" cx="400" cy="400" stroke-dasharray="1659, 1734" transform="rotate(-16 400 400)" opacity=".09" id="circle3044" style="stroke:url(#linearGradient3486)"/><circle r="264" cx="400" cy="400" stroke-dasharray="1515, 1659" transform="rotate(-31 400 400)" opacity=".13" id="circle3046" style="stroke:url(#linearGradient3488)"/><circle r="252" cx="400" cy="400" stroke-dasharray="1377, 1583" transform="rotate(-47 400 400)" opacity=".17" id="circle3048" style="stroke:url(#linearGradient3490)"/><circle r="240" cx="400" cy="400" stroke-dasharray="1246, 1508" transform="rotate(-63 400 400)" opacity=".22" id="circle3050" style="stroke:url(#linearGradient3492)"/><circle r="228" cx="400" cy="400" stroke-dasharray="1121, 1433" transform="rotate(-78 400 400)" opacity=".26" id="circle3052" style="stroke:url(#linearGradient3494)"/><circle r="216" cx="400" cy="400" stroke-dasharray="1003, 1357" transform="rotate(-94 400 400)" opacity=".3" id="circle3054" style="stroke:url(#linearGradient3496)"/><circle r="204" cx="400" cy="400" stroke-dasharray="892, 1282" transform="rotate(-110 400 400)" opacity=".34" id="circle3056" style="stroke:url(#linearGradient3498)"/><circle r="192" cx="400" cy="400" stroke-dasharray="787, 1206" transform="rotate(-125 400 400)" opacity=".38" id="circle3058" style="stroke:url(#linearGradient3500)"/><circle r="180" cx="400" cy="400" stroke-dasharray="688, 1131" transform="rotate(-141 400 400)" opacity=".42" id="circle3060" style="stroke:url(#linearGradient3502)"/><circle r="168" cx="400" cy="400" stroke-dasharray="597, 1056" transform="rotate(-157 400 400)" opacity=".46" id="circle3062" style="stroke:url(#linearGradient3504)"/><circle r="156" cx="400" cy="400" stroke-dasharray="511, 980" transform="rotate(-172 400 400)" opacity=".5" id="circle3064" style="stroke:url(#linearGradient3506)"/><circle r="144" cx="400" cy="400" stroke-dasharray="433, 905" transform="rotate(172 400 400)" opacity=".55" id="circle3066" style="stroke:url(#linearGradient3508)"/><circle r="132" cx="400" cy="400" stroke-dasharray="361, 829" transform="rotate(157 400 400)" opacity=".59" id="circle3068" style="stroke:url(#linearGradient3510)"/><circle r="120" cx="400" cy="400" stroke-dasharray="295, 754" transform="rotate(141 400 400)" opacity=".63" id="circle3070" style="stroke:url(#linearGradient3512)"/><circle r="108" cx="400" cy="400" stroke-dasharray="236, 679" transform="rotate(125 400 400)" opacity=".67" id="circle3072" style="stroke:url(#linearGradient3514)"/><circle r="96" cx="400" cy="400" stroke-dasharray="184, 603" transform="rotate(110 400 400)" opacity=".71" id="circle3074" style="stroke:url(#linearGradient3516)"/><circle r="84" cx="400" cy="400" stroke-dasharray="138, 528" transform="rotate(94 400 400)" opacity=".75" id="circle3076" style="stroke:url(#linearGradient3518)"/><circle r="72" cx="400" cy="400" stroke-dasharray="98, 452" transform="rotate(78 400 400)" opacity=".79" id="circle3078" style="stroke:url(#linearGradient3520)"/><circle r="60" cx="400" cy="400" stroke-dasharray="66, 377" transform="rotate(63 400 400)" opacity=".83" id="circle3080" style="stroke:url(#linearGradient3522)"/><circle r="48" cx="400" cy="400" stroke-dasharray="39, 302" transform="rotate(47 400 400)" opacity=".88" id="circle3082" style="stroke:url(#linearGradient3524)"/><circle r="36" cx="400" cy="400" stroke-dasharray="20, 226" transform="rotate(31 400 400)" opacity=".92" id="circle3084" style="stroke:url(#linearGradient3526)"/><circle r="24" cx="400" cy="400" stroke-dasharray="7, 151" transform="rotate(16 400 400)" opacity=".96" id="circle3086" style="stroke:url(#linearGradient3528)"/><circle r="12" cx="400" cy="400" stroke-dasharray="0, 75" opacity="1" id="circle3088" style="stroke:url(#linearGradient3530)"/></g><g id="g3949" transform="matrix(.4139 0 0 .4139 253.415 270.525)" style="stroke:url(#linearGradient4339)"><ellipse rx="150" ry="75" cx="450" cy="500" fill="#000" opacity=".25" filter="url('#sssurface-blur')" id="ellipse3941" style="stroke:url(#linearGradient4331)"/><circle r="150" cx="400" cy="400" fill="#023047" id="circle3943" style="stroke:url(#linearGradient4333)"/><circle r="150" cx="400" cy="400" fill="url('#sssurface-grad-dark')" id="circle3945" style="fill:url(#sssurface-grad-dark);stroke:url(#linearGradient4335)"/><circle r="150" cx="400" cy="400" fill="url('#sssurface-grad-light')" id="circle3947" style="fill:url(#sssurface-grad-light);stroke:url(#linearGradient4337)"/></g></g></svg>