<?xml version="1.0" standalone="no"?>
<svg xmlns:xlink="http://www.w3.org/1999/xlink" id="wave" style="transform:rotate(0deg); transition: 0.3s" viewBox="0 0 1440 160" version="1.1" xmlns="http://www.w3.org/2000/svg"><defs><linearGradient id="sw-gradient-0" x1="0" x2="0" y1="1" y2="0"><stop stop-color="rgba(3, 82, 121, 1)" offset="0%"/><stop stop-color="rgba(3, 82, 121, 0.31)" offset="100%"/></linearGradient></defs><path style="transform:translate(0, 0px); opacity:1" fill="url(#sw-gradient-0)" d="M0,128L13.3,112C26.7,96,53,64,80,56C106.7,48,133,64,160,61.3C186.7,59,213,37,240,32C266.7,27,293,37,320,48C346.7,59,373,69,400,64C426.7,59,453,37,480,34.7C506.7,32,533,48,560,69.3C586.7,91,613,117,640,112C666.7,107,693,69,720,64C746.7,59,773,85,800,98.7C826.7,112,853,112,880,117.3C906.7,123,933,133,960,133.3C986.7,133,1013,123,1040,101.3C1066.7,80,1093,48,1120,34.7C1146.7,21,1173,27,1200,26.7C1226.7,27,1253,21,1280,29.3C1306.7,37,1333,59,1360,72C1386.7,85,1413,91,1440,101.3C1466.7,112,1493,128,1520,112C1546.7,96,1573,48,1600,37.3C1626.7,27,1653,53,1680,72C1706.7,91,1733,101,1760,93.3C1786.7,85,1813,59,1840,42.7C1866.7,27,1893,21,1907,18.7L1920,16L1920,160L1906.7,160C1893.3,160,1867,160,1840,160C1813.3,160,1787,160,1760,160C1733.3,160,1707,160,1680,160C1653.3,160,1627,160,1600,160C1573.3,160,1547,160,1520,160C1493.3,160,1467,160,1440,160C1413.3,160,1387,160,1360,160C1333.3,160,1307,160,1280,160C1253.3,160,1227,160,1200,160C1173.3,160,1147,160,1120,160C1093.3,160,1067,160,1040,160C1013.3,160,987,160,960,160C933.3,160,907,160,880,160C853.3,160,827,160,800,160C773.3,160,747,160,720,160C693.3,160,667,160,640,160C613.3,160,587,160,560,160C533.3,160,507,160,480,160C453.3,160,427,160,400,160C373.3,160,347,160,320,160C293.3,160,267,160,240,160C213.3,160,187,160,160,160C133.3,160,107,160,80,160C53.3,160,27,160,13,160L0,160Z"/><defs><linearGradient id="sw-gradient-1" x1="0" x2="0" y1="1" y2="0"><stop stop-color="rgba(3, 82, 121, 1)" offset="0%"/><stop stop-color="rgba(3, 82, 121, 0.44)" offset="100%"/></linearGradient></defs><path style="transform:translate(0, 50px); opacity:0.9" fill="url(#sw-gradient-1)" d="M0,144L13.3,141.3C26.7,139,53,133,80,130.7C106.7,128,133,128,160,106.7C186.7,85,213,43,240,32C266.7,21,293,43,320,48C346.7,53,373,43,400,42.7C426.7,43,453,53,480,69.3C506.7,85,533,107,560,106.7C586.7,107,613,85,640,85.3C666.7,85,693,107,720,117.3C746.7,128,773,128,800,106.7C826.7,85,853,43,880,21.3C906.7,0,933,0,960,8C986.7,16,1013,32,1040,53.3C1066.7,75,1093,101,1120,101.3C1146.7,101,1173,75,1200,66.7C1226.7,59,1253,69,1280,82.7C1306.7,96,1333,112,1360,122.7C1386.7,133,1413,139,1440,138.7C1466.7,139,1493,133,1520,128C1546.7,123,1573,117,1600,106.7C1626.7,96,1653,80,1680,80C1706.7,80,1733,96,1760,85.3C1786.7,75,1813,37,1840,29.3C1866.7,21,1893,43,1907,53.3L1920,64L1920,160L1906.7,160C1893.3,160,1867,160,1840,160C1813.3,160,1787,160,1760,160C1733.3,160,1707,160,1680,160C1653.3,160,1627,160,1600,160C1573.3,160,1547,160,1520,160C1493.3,160,1467,160,1440,160C1413.3,160,1387,160,1360,160C1333.3,160,1307,160,1280,160C1253.3,160,1227,160,1200,160C1173.3,160,1147,160,1120,160C1093.3,160,1067,160,1040,160C1013.3,160,987,160,960,160C933.3,160,907,160,880,160C853.3,160,827,160,800,160C773.3,160,747,160,720,160C693.3,160,667,160,640,160C613.3,160,587,160,560,160C533.3,160,507,160,480,160C453.3,160,427,160,400,160C373.3,160,347,160,320,160C293.3,160,267,160,240,160C213.3,160,187,160,160,160C133.3,160,107,160,80,160C53.3,160,27,160,13,160L0,160Z"/></svg>